<svg width="148" height="17" viewBox="0 0 148 17" fill="none" xmlns="http://www.w3.org/2000/svg">
<g clip-path="url(#clip0_5630_4308)">
<path d="M123.313 0.00585938H118.359V16.4589H123.313V0.00585938Z" fill="#231F20"/>
<path d="M14.9886 8.22723H5.16405V3.72089H14.9886C16.2321 3.72089 17.2443 4.72801 17.2443 5.97663C17.2443 7.22525 16.2372 8.23236 14.9886 8.23236M16.3194 0.00585938H0V16.4486H5.16405V11.9371H16.3194C19.4744 11.9371 22.0333 9.41932 22.0333 6.31062V5.62722C22.0384 2.52365 19.4795 0.00585938 16.3194 0.00585938Z" fill="#231F20"/>
<path d="M98.5859 8.22723V3.72089H108.41C109.654 3.72089 110.666 4.72801 110.666 5.97663C110.666 7.22525 109.659 8.23236 108.41 8.23236H98.5859V8.22723ZM112.829 11.0482C114.407 10.0462 115.455 8.3043 115.455 6.31576V5.63236C115.46 2.52365 112.896 0.00585938 109.741 0.00585938H93.4219V16.4486H98.5859V11.9371H107.537L110.157 16.4589H115.969L112.835 11.043L112.829 11.0482Z" fill="#231F20"/>
<path d="M142.948 6.19244H131.947C131.264 6.19244 130.709 5.6375 130.709 4.95409C130.709 4.27069 131.264 3.71575 131.947 3.71575H146.221V0.00585938H131.012C128.222 0.00585938 125.961 2.25132 125.961 5.04145C125.961 7.83157 128.222 10.077 131.012 10.077H142.013C142.702 10.077 143.257 10.632 143.257 11.3205C143.257 12.0091 142.702 12.564 142.013 12.564H126.557V16.4486H142.948C145.738 16.4486 147.999 14.2031 147.999 11.413C147.999 8.62288 145.738 6.19244 142.948 6.19244Z" fill="#231F20"/>
<path d="M42.049 2.84758L40.6668 6.77328L47.8451 7.82151V4.98513C47.8451 2.24125 45.6202 0.0214844 42.8814 0.0214844H36.5664L37.851 4.38909L42.049 2.84758Z" fill="#231F20"/>
<path d="M40.6668 9.71229L42.049 13.638L37.851 12.0965L36.5664 16.4641H42.8814C45.6202 16.4641 47.8451 14.2443 47.8451 11.5004V8.66406L40.6668 9.71229Z" fill="#231F20"/>
<path d="M24.4414 4.98V7.81637L31.6197 6.76814L30.2375 2.84244L34.4355 4.38395L35.7201 0.0214844H29.4051C26.6663 0.0214844 24.4414 2.24125 24.4414 4.98513" fill="#231F20"/>
<path d="M30.2336 13.638L31.6158 9.71229L24.4375 8.66406V11.5004C24.4375 14.2392 26.6573 16.4641 29.4012 16.4641H35.7162L34.4316 12.0965L30.2336 13.638Z" fill="#231F20"/>
<path d="M56.4739 12.6565C55.9857 12.6565 55.5901 12.2557 55.5901 11.7727V0.00585938H50.6367V12.9751C50.6367 14.8917 52.1936 16.4486 54.1102 16.4486H66.4731V12.6565H56.4739Z" fill="#231F20"/>
<path d="M85.8979 8.23164H73.8177V5.48776C73.8177 4.51148 74.6038 3.72531 75.5801 3.71503H84.1355C85.1066 3.72017 85.8979 4.51148 85.8979 5.48776V8.23164ZM85.1632 0H74.5576C71.4027 0 68.8438 2.51779 68.8438 5.6265V16.4633H73.8228V11.9415H85.9031V16.4633H90.8821V5.6265C90.8821 2.52293 88.3233 0 85.1683 0" fill="#231F20"/>
</g>
<defs>
<clipPath id="clip0_5630_4308">
<rect width="148" height="16.4633" fill="white"/>
</clipPath>
</defs>
</svg>
